<svg id="Group_8" data-name="Group 8" xmlns="http://www.w3.org/2000/svg" xmlns:xlink="http://www.w3.org/1999/xlink" width="311.029" height="42.361" viewBox="0 0 311.029 42.361">
  <defs>
    <clipPath id="clip-path">
      <rect id="Rectangle_8" data-name="Rectangle 8" width="311.029" height="42.36" fill="none"/>
    </clipPath>
  </defs>
  <g id="Group_44" data-name="Group 44" transform="translate(0 0)">
    <path id="Path_11" data-name="Path 11" d="M10.056,0v42.36L31.774,0Z" transform="translate(11.664 0)" fill="#fbcf09"/>
    <path id="Path_12" data-name="Path 12" d="M31.774,0,10.056,42.361H31.774Z" transform="translate(11.664 0)" fill="#ee3c25"/>
    <path id="Path_13" data-name="Path 13" d="M0,0l21.718,42.36V0Z" transform="translate(0 0)" fill="#3fbcc4"/>
    <path id="Path_14" data-name="Path 14" d="M0,0v42.36H21.72Z" transform="translate(0 0)" fill="#2b68ab"/>
  </g>
  <g id="Group_7" data-name="Group 7">
    <g id="Group_6" data-name="Group 6" clip-path="url(#clip-path)">
      <path id="Path_15" data-name="Path 15" d="M115.567,28.894a1.736,1.736,0,0,1-1.734-1.734V13.8L106.9,27.65a1.732,1.732,0,0,1-3.1,0L96.858,13.8V27.16a1.734,1.734,0,0,1-3.469,0V6.47a1.734,1.734,0,0,1,3.285-.775L105.344,23l8.672-17.307a1.734,1.734,0,0,1,3.285.775V27.16a1.736,1.736,0,0,1-1.734,1.734" transform="translate(108.324 5.494)" fill="#fff"/>
      <path id="Path_16" data-name="Path 16" d="M40.93,28.608h-.017a1.735,1.735,0,0,1-1.534-.957L29.158,7.246a1.733,1.733,0,1,1,3.1-1.553l8.711,17.387,9.182-17.42a1.734,1.734,0,0,1,3.067,1.618l-10.754,20.4a1.732,1.732,0,0,1-1.534.927" transform="translate(33.607 5.493)" fill="#fff"/>
      <path id="Path_17" data-name="Path 17" d="M51.675,29.178a1.736,1.736,0,0,1-1.734-1.734V6.468a1.734,1.734,0,0,1,3.469,0V27.443a1.736,1.736,0,0,1-1.734,1.734" transform="translate(57.928 5.493)" fill="#fff"/>
      <path id="Path_18" data-name="Path 18" d="M83.545,28.895a1.736,1.736,0,0,1-1.734-1.734V6.47a1.734,1.734,0,0,1,3.469,0V27.16a1.736,1.736,0,0,1-1.734,1.734" transform="translate(94.895 5.493)" fill="#fff"/>
      <path id="Path_19" data-name="Path 19" d="M83.354,28.895H63.938A1.736,1.736,0,0,1,62.2,27.16V6.47a1.736,1.736,0,0,1,1.734-1.734H83.354a1.734,1.734,0,1,1,0,3.469H65.673V25.426H83.354a1.734,1.734,0,1,1,0,3.469" transform="translate(72.152 5.493)" fill="#fff"/>
      <path id="Path_20" data-name="Path 20" d="M144.9,28.895H134.416a1.734,1.734,0,1,1,0-3.469h8.754V6.47A1.736,1.736,0,0,1,144.9,4.736h10.489a1.734,1.734,0,0,1,0,3.469h-8.754V27.16a1.736,1.736,0,0,1-1.734,1.734" transform="translate(153.901 5.493)" fill="#fff"/>
      <path id="Path_21" data-name="Path 21" d="M136.411,28.895H115.433A1.736,1.736,0,0,1,113.7,27.16V6.47a1.734,1.734,0,0,1,3.469,0V25.426h17.508V6.47a1.734,1.734,0,1,1,3.469,0V27.16a1.736,1.736,0,0,1-1.734,1.734" transform="translate(131.882 5.493)" fill="#fff"/>
    </g>
  </g>
</svg>
